inDegrees=no
num_controls=7
num_derivatives=13
num_iterations=116
num_multipliers=7
num_parameters=0
num_slacks=7
num_states=26
objective=0.477046
objective_accelerations=0.044287
objective_balance=0.003652
objective_effort=0.040552
objective_height=0.382890
objective_ligament=0.005665
solver_duration=1612.315698
status=Solve_Succeeded
success=true
DataType=double
version=3
OpenSimVersion=4.5
endheader
time	/jointset/ground_pelvis/pelvis_tilt/value	/jointset/ground_pelvis/pelvis_tx/value	/jointset/ground_pelvis/pelvis_ty/value	/jointset/hip_l/hip_flexion_l/value	/jointset/hip_l/hip_adduction_l/value	/jointset/hip_l/hip_rotation_l/value	/jointset/back/lumbar_extension/value	/jointset/patellofemoral_l/patellar_flexion_l/value	/jointset/knee_l/knee_flexion_l/value	/jointset/knee_l/knee_adduction_l/value	/jointset/knee_l/knee_rotation_l/value	/jointset/ankle_l/ankle_angle_l/value	/jointset/subtalar_l/subtalar_angle_l/value	/jointset/ground_pelvis/pelvis_tilt/speed	/jointset/ground_pelvis/pelvis_tx/speed	/jointset/ground_pelvis/pelvis_ty/speed	/jointset/hip_l/hip_flexion_l/speed	/jointset/hip_l/hip_adduction_l/speed	/jointset/hip_l/hip_rotation_l/speed	/jointset/back/lumbar_extension/speed	/jointset/patellofemoral_l/patellar_flexion_l/speed	/jointset/knee_l/knee_flexion_l/speed	/jointset/knee_l/knee_adduction_l/speed	/jointset/knee_l/knee_rotation_l/speed	/jointset/ankle_l/ankle_angle_l/speed	/jointset/subtalar_l/subtalar_angle_l/speed	/forceset/tau_hip_flexion_l	/forceset/tau_hip_adduction_l	/forceset/tau_hip_rotation_l	/forceset/tau_knee_flexion_l	/forceset/tau_ankle_angle_l	/forceset/tau_subtalar_angle_l	/forceset/tau_lumbar_extension	lambda_cid13_p0	lambda_cid13_p1	lambda_cid13_p2	lambda_cid13_p3	lambda_cid13_p4	lambda_cid13_p5	lambda_cid14_p0	/jointset/ground_pelvis/pelvis_tilt/accel	/jointset/ground_pelvis/pelvis_tx/accel	/jointset/ground_pelvis/pelvis_ty/accel	/jointset/hip_l/hip_flexion_l/accel	/jointset/hip_l/hip_adduction_l/accel	/jointset/hip_l/hip_rotation_l/accel	/jointset/back/lumbar_extension/accel	/jointset/patellofemoral_l/patellar_flexion_l/accel	/jointset/knee_l/knee_flexion_l/accel	/jointset/knee_l/knee_adduction_l/accel	/jointset/knee_l/knee_rotation_l/accel	/jointset/ankle_l/ankle_angle_l/accel	/jointset/subtalar_l/subtalar_angle_l/accel	gamma_cid13_p0	gamma_cid13_p1	gamma_cid13_p2	gamma_cid13_p3	gamma_cid13_p4	gamma_cid13_p5	gamma_cid14_p0
1.5	0.0102487506681488	-0.01164608029367772	0.8526025309317968	0.6715030747809873	-0.3226746620780072	-0.1326309836423363	-0.7969122966498408	0.777746859988861	0.7777468599888869	-0.1035508148263465	-0.1745291605491306	0.1535327050253369	0.0239768540385624	0.3161225383534504	0.2329295171849604	0.4220619518581178	-1.978746282916146	0.08468037026995001	-0.6437051753244091	0.8384029355475621	-1.994291167128887	-1.994291167128779	-0.1436279374444975	1.74866912417854e-05	-0.45351705622282	-0.06195358357289477	-0.1956462241855553	0.02438267352913924	-0.005184788092182264	-0.2271850590359828	0.06560667111798879	0.03938945521952191	0.2781919945588259	-21.09452300918862	-15.6788585088208	4.633095947805637	-7.340022171466693	-669.2942089573032	-74.14467601945123	-15.28364428962383	-0.01650083999417416	0.6451012247882092	-0.6177864004517588	-0.6767293913309115	0.4742145709273974	-0.3655062738456216	1.968698245647806	-0.9995553889021349	-0.9995553889021173	-0.2557925858200996	0.02071258608960963	-0.2944013909499305	0.4502163382040625	3.127540990537077e-07	1.024394560683856e-06	-1.372473652402203e-06	-1.206690252882355e-08	4.004960950189719e-07	5.699484741977718e-07	2.878875360655478e-07
1.51	0.01340902505461012	-0.009284741765166984	0.856791438747822	0.651683536053427	-0.3218049552105609	-0.1390866632821432	-0.7884312665719145	0.7577563215994542	0.7577563215994787	-0.1050009180396274	-0.1745296741276323	0.1489832935310473	0.02337897251521545	0.3158920097099042	0.2393131051135994	0.4156332255285929	-1.984906942697737	0.08925670923464783	-0.647331004978558	0.8576889015755708	-2.003535594284898	-2.003535594284759	-0.146415907484756	-9.811217009947347e-05	-0.4562778324158992	-0.05760588512416817	-0.188537141550142	0.02348597335584404	-0.004963654615353363	-0.2232723023219998	0.06612196107905094	0.03869103626796924	0.2712157718208719	-20.69893650217035	-15.49520309081801	4.661388996897495	-7.251259248222253	-664.8122075322308	-74.08002633384402	-15.99899330719849	-0.03237507111155398	0.6312570722995571	-0.6683136642806661	-0.5475517283421825	0.4485611723303361	-0.3459431486008579	1.891419012045802	-0.8447937108700186	-0.8447937108651782	-0.2935184302455101	-0.02446381552256423	-0.2537466632834992	0.4293534756263203	2.179839261902024e-07	1.452572506729266e-06	-7.339569246452802e-07	1.015167613470219e-07	3.340289856259267e-07	5.947245825328254e-07	2.457284107564024e-07
1.52	0.01656578491572004	-0.006860313458290319	0.8609134797175365	0.6318100272366965	-0.3208896414308491	-0.1455755655859723	-0.7797608021875746	0.7376817574721056	0.7376817574721252	-0.1064795447967389	-0.1745306972333965	0.1444089080888676	0.02282502935183965	0.3154196332832911	0.2455474728581462	0.4086885825959542	-1.989540300750086	0.09380175272291982	-0.6503497081287595	0.8762897968303164	-2.011096314717683	-2.01109631471751	-0.1493326462096855	-8.441876250392703e-05	-0.4585118458008416	-0.05316591157866701	-0.1814280589147283	0.02258927318254876	-0.004742521138557728	-0.2193595456080158	0.06663725104011296	0.0379926173164164	0.2642395490829182	-20.30293799264109	-15.31328116276165	4.691856653536963	-7.197109263888169	-660.3522923312935	-74.0507818768893	-16.7036958047679	-0.06487039660756469	0.6152571879697714	-0.7209697210745071	-0.3712690454825653	0.4679554756422392	-0.2440809730561349	1.83168409099517	-0.6628140442565321	-0.6628140442564902	-0.2815463227543189	0.04657103987697805	-0.1890488293225665	0.468671357558982	1.591404932217479e-07	1.749410722543418e-06	-3.361430783612718e-07	1.726082457445096e-07	3.022341931772258e-07	6.170567572055368e-07	2.215604791694553e-07
1.53	0.01971661097653721	-0.004374355844316924	0.8649636015845459	0.6118977293007998	-0.3199289796161768	-0.1520925383895793	-0.7709080007464968	0.7175398872908622	0.7175398872908607	-0.1079873450587713	-0.1745315048764074	0.1398147710779926	0.02231601363300342	0.3147007265379878	0.251611824322225	0.4012581703541812	-1.992660862030792	0.09832569950448794	-0.6529732908112147	0.894137482913595	-2.016999375824916	-2.016999375824829	-0.1522274504377584	-7.286893568382341e-05	-0.4602304532041138	-0.04862160917324333	-0.1741351671962267	0.0214821084212878	-0.004591220019619017	-0.215835756720974	0.06738489877515463	0.03722956060047036	0.2571265589168867	-19.85597308561776	-15.10760756562672	4.713279142856839	-7.09471575658409	-656.1727586815988	-74.03675350020379	-17.39821030099028	-0.08213569296261321	0.5972327716575107	-0.7656580476160517	-0.2436926728157394	0.4436546521122735	-0.2605601737409765	1.741359596231925	-0.5123430487254491	-0.5123430487381743	-0.2931298280853701	-0.02094797528306584	-0.1504353267015562	0.4493508866854443	1.384692213917845e-07	1.90670047498686e-06	-1.940760436422333e-07	1.985517894462427e-07	3.072787374818903e-07	6.3679225236201e-07	2.165081909123436e-07
1.54	0.02285890099400631	-0.001828712986496641	0.86893710311476	0.5919619771514051	-0.3189232702591487	-0.1586335596715918	-0.7618807126987388	0.6973473283175921	0.6973473283175702	-0.1095240298341332	-0.1745320760070235	0.1352060142669104	0.0218528491791517	0.3137124246138521	0.2574845216275237	0.393364515236911	-1.994231143449543	0.102811261193984	-0.6551594038097009	0.9111871181663842	-2.021234073122897	-2.021234073122895	-0.1551095488758958	-3.711628356733421e-05	-0.4614358058422665	-0.04399565858176449	-0.1668422754777268	0.02037494366002371	-0.004439918900665567	-0.2123119678339342	0.0681325465101949	0.03646650388451998	0.2500135687508547	-19.40655097705418	-14.90378022426673	4.73661360133538	-7.030395638755777	-651.9859031739545	-74.04826732082162	-18.08355055099047	-0.1187494323740269	0.5769263562137742	-0.8136182961739428	-0.0612130730916073	0.4602784572278374	-0.1565870362623607	1.672073924897323	-0.3291412824059808	-0.3291412824060044	-0.2790051647672173	0.05141160493626867	-0.08639787629863749	0.4850009947700185	1.082043272488437e-07	2.010286350221189e-06	-5.196666560627104e-08	2.280436121563881e-07	2.827896091732955e-07	6.312221941113277e-07	2.069775725198173e-07
